<svg width="20" height="20" viewBox="0 0 20 20" fill="none" xmlns="http://www.w3.org/2000/svg">
<path d="M14.1458 9.00063L10 13.1464L5.85418 9.00063L6.91938 7.94293L9.82322 10.8468L10 11.0236L10.1768 10.8468L13.0806 7.94293L14.1458 9.00063ZM0.25 10C0.25 4.61807 4.61807 0.25 10 0.25C15.3819 0.25 19.75 4.61807 19.75 10C19.75 15.3819 15.3819 19.75 10 19.75C4.61807 19.75 0.25 15.3819 0.25 10ZM1.75 10C1.75 14.5581 5.44193 18.25 10 18.25C14.5581 18.25 18.25 14.5581 18.25 10C18.25 5.44193 14.5581 1.75 10 1.75C5.44193 1.75 1.75 5.44193 1.75 10Z" fill="#F2358D" stroke="#202122" stroke-width="0.5"/>
</svg>
