<svg width="11" height="16" viewBox="0 0 11 16" fill="none" xmlns="http://www.w3.org/2000/svg">
<path d="M5.47808 13.5324L5.67415 13.7841L5.87165 13.5335C6.67165 12.5184 7.61771 11.1944 8.36511 9.84856C9.10713 8.51235 9.67529 7.1165 9.67529 5.96875C9.67529 3.76068 7.88337 1.96875 5.67529 1.96875C3.46722 1.96875 1.67529 3.76068 1.67529 5.96875C1.67529 7.10595 2.25165 8.5061 2.99681 9.84589C3.74772 11.196 4.69348 12.5252 5.47808 13.5324ZM5.67529 15.34C5.66372 15.3267 5.65165 15.3127 5.63911 15.2981C5.49696 15.1331 5.29347 14.8926 5.0491 14.5915C4.56013 13.989 3.90858 13.1454 3.25753 12.1805C2.606 11.2148 1.95806 10.1321 1.47376 9.05111C0.987986 7.9668 0.675293 6.90254 0.675293 5.96875C0.675293 3.20432 2.91086 0.96875 5.67529 0.96875C8.43972 0.96875 10.6753 3.20432 10.6753 5.96875C10.6753 6.90254 10.3626 7.9668 9.87683 9.05111C9.39253 10.1321 8.74458 11.2148 8.09305 12.1805C7.442 13.1454 6.79046 13.989 6.30149 14.5915C6.05712 14.8926 5.85363 15.1331 5.71148 15.2981C5.69893 15.3127 5.68687 15.3267 5.67529 15.34Z" fill="white" stroke="#1B1C1D" stroke-width="0.5"/>
</svg>
