<svg width="21" height="21" viewBox="0 0 21 21" fill="none" xmlns="http://www.w3.org/2000/svg">
<path d="M9.24902 15.4844H11.249V11.4844H15.249V9.48438H11.249V5.48438H9.24902V9.48438H5.24902V11.4844H9.24902V15.4844ZM10.249 20.4844C8.86569 20.4844 7.56569 20.2217 6.34902 19.6964C5.13236 19.1717 4.07402 18.4594 3.17402 17.5594C2.27402 16.6594 1.56169 15.601 1.03702 14.3844C0.51169 13.1677 0.249023 11.8677 0.249023 10.4844C0.249023 9.10104 0.51169 7.80104 1.03702 6.58438C1.56169 5.36771 2.27402 4.30938 3.17402 3.40938C4.07402 2.50938 5.13236 1.79671 6.34902 1.27137C7.56569 0.746708 8.86569 0.484375 10.249 0.484375C11.6324 0.484375 12.9324 0.746708 14.149 1.27137C15.3657 1.79671 16.424 2.50938 17.324 3.40938C18.224 4.30938 18.9364 5.36771 19.461 6.58438C19.9864 7.80104 20.249 9.10104 20.249 10.4844C20.249 11.8677 19.9864 13.1677 19.461 14.3844C18.9364 15.601 18.224 16.6594 17.324 17.5594C16.424 18.4594 15.3657 19.1717 14.149 19.6964C12.9324 20.2217 11.6324 20.4844 10.249 20.4844ZM10.249 18.4844C12.4824 18.4844 14.374 17.7094 15.924 16.1594C17.474 14.6094 18.249 12.7177 18.249 10.4844C18.249 8.25104 17.474 6.35938 15.924 4.80937C14.374 3.25937 12.4824 2.48438 10.249 2.48438C8.01569 2.48438 6.12402 3.25937 4.57402 4.80937C3.02402 6.35938 2.24902 8.25104 2.24902 10.4844C2.24902 12.7177 3.02402 14.6094 4.57402 16.1594C6.12402 17.7094 8.01569 18.4844 10.249 18.4844Z" fill="#6F7381"/>
</svg>
