<?xml version="1.0" encoding="utf-8"?>
<!-- Generator: Adobe Illustrator 21.1.0, SVG Export Plug-In . SVG Version: 6.00 Build 0)  -->
<svg version="1.1" id="Layer_1" xmlns="http://www.w3.org/2000/svg" xmlns:xlink="http://www.w3.org/1999/xlink" x="0px" y="0px"
	 viewBox="0 0 41 41" style="enable-background:new 0 0 41 41;" xml:space="preserve">
<style type="text/css">
	.st0{fill:#11C6D1;}
</style>
<g>
	<path class="st0" d="M20.6,33.9l-1.4-1.4l1.6-1.6l0.8-0.8l-1.2,0c-1.2,0-2.4-0.3-3.5-0.7c-1.1-0.5-2.2-1.1-3.1-2.1
		c-0.9-0.9-1.6-2-2.1-3.2c-0.5-1.2-0.7-2.4-0.7-3.6c0-0.9,0.1-1.8,0.4-2.7c0.2-0.7,0.5-1.4,0.9-2l1.5,1.5c-0.2,0.5-0.4,0.9-0.5,1.4
		C13,19.3,13,19.9,13,20.6c0,0.9,0.2,1.9,0.6,2.8l0,0c0.4,0.9,0.9,1.8,1.6,2.5c0.8,0.8,1.6,1.3,2.6,1.7c0.9,0.4,1.9,0.5,2.9,0.5
		l1.1,0L21,27.1l-1.8-1.8l1.4-1.4l5,5L20.6,33.9z"/>
	<path class="st0" d="M20.4,7.1l1.4,1.4l-1.6,1.6l-0.8,0.8l1.2,0c1.2,0,2.4,0.3,3.5,0.7c1.1,0.5,2.2,1.1,3.1,2.1
		c0.9,0.9,1.6,2,2.1,3.2c0.5,1.2,0.7,2.4,0.7,3.6c0,0.9-0.1,1.8-0.4,2.7c-0.2,0.7-0.5,1.4-0.9,2l-1.5-1.5c0.2-0.5,0.4-0.9,0.5-1.4
		c0.2-0.6,0.2-1.2,0.2-1.8c0-0.9-0.2-1.9-0.6-2.8l0,0c-0.4-0.9-0.9-1.8-1.6-2.5c-0.8-0.8-1.6-1.3-2.6-1.7c-0.9-0.4-1.9-0.5-2.9-0.5
		l-1.1,0l0.8,0.8l1.8,1.8l-1.4,1.4l-5-5L20.4,7.1z"/>
</g>
<g>
	<path class="st0" d="M20.5,39.6C10,39.6,1.4,31,1.4,20.5S10,1.4,20.5,1.4C31,1.4,39.6,10,39.6,20.5S31,39.6,20.5,39.6z M20.5,3.4
		c-9.4,0-17.1,7.7-17.1,17.1c0,9.4,7.7,17.1,17.1,17.1s17.1-7.7,17.1-17.1C37.6,11.1,29.9,3.4,20.5,3.4z"/>
</g>
</svg>
