<svg width="21" height="21" viewBox="0 0 21 21" fill="none" xmlns="http://www.w3.org/2000/svg">
<path d="M9.02358 14.9125L16.0736 7.8625L14.6736 6.4625L9.02358 12.1125L6.17358 9.2625L4.77358 10.6625L9.02358 14.9125ZM10.4236 20.3125C9.04025 20.3125 7.74025 20.0498 6.52358 19.5245C5.30692 18.9998 4.24858 18.2875 3.34858 17.3875C2.44858 16.4875 1.73625 15.4292 1.21158 14.2125C0.686251 12.9958 0.423584 11.6958 0.423584 10.3125C0.423584 8.92917 0.686251 7.62917 1.21158 6.4125C1.73625 5.19583 2.44858 4.1375 3.34858 3.2375C4.24858 2.3375 5.30692 1.62483 6.52358 1.0995C7.74025 0.574833 9.04025 0.3125 10.4236 0.3125C11.8069 0.3125 13.1069 0.574833 14.3236 1.0995C15.5403 1.62483 16.5986 2.3375 17.4986 3.2375C18.3986 4.1375 19.1109 5.19583 19.6356 6.4125C20.1609 7.62917 20.4236 8.92917 20.4236 10.3125C20.4236 11.6958 20.1609 12.9958 19.6356 14.2125C19.1109 15.4292 18.3986 16.4875 17.4986 17.3875C16.5986 18.2875 15.5403 18.9998 14.3236 19.5245C13.1069 20.0498 11.8069 20.3125 10.4236 20.3125ZM10.4236 18.3125C12.6569 18.3125 14.5486 17.5375 16.0986 15.9875C17.6486 14.4375 18.4236 12.5458 18.4236 10.3125C18.4236 8.07917 17.6486 6.1875 16.0986 4.6375C14.5486 3.0875 12.6569 2.3125 10.4236 2.3125C8.19025 2.3125 6.29858 3.0875 4.74858 4.6375C3.19858 6.1875 2.42358 8.07917 2.42358 10.3125C2.42358 12.5458 3.19858 14.4375 4.74858 15.9875C6.29858 17.5375 8.19025 18.3125 10.4236 18.3125Z" fill="#11C6D1"/>
</svg>
