<svg width="24" height="24" viewBox="0 0 24 24" fill="none" xmlns="http://www.w3.org/2000/svg">
<path fill-rule="evenodd" clip-rule="evenodd" d="M20 4H4C2.9 4 2.01 4.9 2.01 6L2 18C2 19.1 2.9 20 4 20H20C21.1 20 22 19.1 22 18V6C22 4.9 21.1 4 20 4ZM20 17C20 17.55 19.55 18 19 18H5C4.45 18 4 17.55 4 17V8L10.94 12.34C11.59 12.75 12.41 12.75 13.06 12.34L20 8V17ZM4 6L12 11L20 6H4Z" fill="#6F7381"/>
<path d="M2.01 6L2.41 6.00033V6H2.01ZM2 18L1.6 17.9997V18H2ZM4 8L4.21209 7.66086L3.6 7.27808V8H4ZM10.94 12.34L11.1534 12.0017L11.1521 12.0009L10.94 12.34ZM13.06 12.34L12.8479 12.0009L12.8466 12.0017L13.06 12.34ZM20 8H20.4V7.27808L19.7879 7.66086L20 8ZM12 11L11.788 11.3392L12 11.4717L12.212 11.3392L12 11ZM4 6V5.6H2.60528L3.788 6.3392L4 6ZM20 6L20.212 6.3392L21.3947 5.6H20V6ZM4 4.4H20V3.6H4V4.4ZM2.41 6C2.41 5.1183 3.12352 4.4 4 4.4V3.6C2.67648 3.6 1.61 4.6817 1.61 6H2.41ZM2.4 18.0003L2.41 6.00033L1.61 5.99967L1.6 17.9997L2.4 18.0003ZM4 19.6C3.12091 19.6 2.4 18.8791 2.4 18H1.6C1.6 19.3209 2.67909 20.4 4 20.4V19.6ZM20 19.6H4V20.4H20V19.6ZM21.6 18C21.6 18.8791 20.8791 19.6 20 19.6V20.4C21.3209 20.4 22.4 19.3209 22.4 18H21.6ZM21.6 6V18H22.4V6H21.6ZM20 4.4C20.8791 4.4 21.6 5.12091 21.6 6H22.4C22.4 4.67909 21.3209 3.6 20 3.6V4.4ZM19 18.4C19.7709 18.4 20.4 17.7709 20.4 17H19.6C19.6 17.3291 19.3291 17.6 19 17.6V18.4ZM5 18.4H19V17.6H5V18.4ZM3.6 17C3.6 17.7709 4.22909 18.4 5 18.4V17.6C4.67091 17.6 4.4 17.3291 4.4 17H3.6ZM3.6 8V17H4.4V8H3.6ZM11.1521 12.0009L4.21209 7.66086L3.78791 8.33914L10.7279 12.6791L11.1521 12.0009ZM12.8466 12.0017C12.327 12.3294 11.673 12.3294 11.1534 12.0017L10.7266 12.6783C11.507 13.1706 12.493 13.1706 13.2734 12.6783L12.8466 12.0017ZM19.7879 7.66086L12.8479 12.0009L13.2721 12.6791L20.2121 8.33914L19.7879 7.66086ZM20.4 17V8H19.6V17H20.4ZM12.212 10.6608L4.212 5.6608L3.788 6.3392L11.788 11.3392L12.212 10.6608ZM19.788 5.6608L11.788 10.6608L12.212 11.3392L20.212 6.3392L19.788 5.6608ZM4 6.4H20V5.6H4V6.4Z" fill="#171819"/>
</svg>
