<svg width="21" height="22" viewBox="0 0 21 22" fill="none" xmlns="http://www.w3.org/2000/svg">
<path d="M5.05664 10.9272C5.05664 10.2855 5.14831 9.64388 5.37747 9.04805L1.98581 6.43555C1.34414 7.76471 0.931641 9.27721 0.931641 10.8814C0.931641 12.4855 1.29831 13.998 1.98581 15.3272L5.37747 12.7147C5.14831 12.2105 5.05664 11.5689 5.05664 10.9272Z" fill="#FBBC05"/>
<path d="M11.0145 4.96875C12.4354 4.96875 13.7187 5.47292 14.727 6.29792L17.6604 3.36458C15.8729 1.80625 13.5812 0.84375 11.0145 0.84375C7.02702 0.84375 3.58952 3.13542 1.98535 6.48125L5.37702 9.09375C6.15618 6.66458 8.35619 4.96875 11.0145 4.96875Z" fill="#EA4335"/>
<path d="M11.0145 16.8858C8.35619 16.8858 6.15618 15.19 5.37702 12.8066L1.98535 15.4191C3.58952 18.7191 7.02702 21.0108 11.0145 21.0108C13.4895 21.0108 15.827 20.14 17.5687 18.49L14.3604 16.015C13.4437 16.565 12.2979 16.8858 11.0145 16.8858Z" fill="#34A853"/>
<path d="M11.0146 9.09375V12.9896H16.423C16.148 14.3188 15.4146 15.3271 14.3605 16.0146L17.5688 18.4896C19.4021 16.7479 20.6396 14.2271 20.6396 10.9271C20.6396 10.3313 20.548 9.68958 20.4105 9.09375H11.0146Z" fill="#4285F4"/>
</svg>
