<svg width="21" height="19" viewBox="0 0 21 19" fill="none" xmlns="http://www.w3.org/2000/svg">
<path d="M20.7506 7.81594V16.8359C20.7506 17.9359 19.8506 18.8359 18.7506 18.8359H2.75061C1.65061 18.8359 0.75061 17.9359 0.75061 16.8359L0.76061 4.83594C0.76061 3.73594 1.65061 2.83594 2.75061 2.83594H12.8506C12.7906 3.15594 12.7506 3.49594 12.7506 3.83594C12.7506 4.17594 12.7906 4.51594 12.8506 4.83594H2.75061L10.7506 9.83594L14.4206 7.54594C14.8906 7.97594 15.4406 8.30594 16.0506 8.52594L10.7506 11.8359L2.75061 6.83594V16.8359H18.7506V8.73594C19.4906 8.58594 20.1706 8.25594 20.7506 7.81594ZM14.7506 3.83594C14.7506 5.49594 16.0906 6.83594 17.7506 6.83594C19.4106 6.83594 20.7506 5.49594 20.7506 3.83594C20.7506 2.17594 19.4106 0.835938 17.7506 0.835938C16.0906 0.835938 14.7506 2.17594 14.7506 3.83594Z" fill="white"/>
</svg>
