<svg width="19" height="19" viewBox="0 0 19 19" fill="none" xmlns="http://www.w3.org/2000/svg">
<path d="M9.47808 14.5324L9.67415 14.7841L9.87165 14.5335C10.6716 13.5184 11.6177 12.1944 12.3651 10.8486C13.1071 9.51235 13.6753 8.1165 13.6753 6.96875C13.6753 4.76068 11.8834 2.96875 9.67529 2.96875C7.46722 2.96875 5.67529 4.76068 5.67529 6.96875C5.67529 8.10595 6.25165 9.5061 6.99681 10.8459C7.74772 12.196 8.69348 13.5252 9.47808 14.5324ZM9.67529 16.34C9.66372 16.3267 9.65165 16.3127 9.63911 16.2981C9.49696 16.1331 9.29347 15.8926 9.0491 15.5915C8.56013 14.989 7.90858 14.1454 7.25753 13.1805C6.606 12.2148 5.95806 11.1321 5.47376 10.0511C4.98799 8.9668 4.67529 7.90254 4.67529 6.96875C4.67529 4.20432 6.91086 1.96875 9.67529 1.96875C12.4397 1.96875 14.6753 4.20432 14.6753 6.96875C14.6753 7.90254 14.3626 8.9668 13.8768 10.0511C13.3925 11.1321 12.7446 12.2148 12.0931 13.1805C11.442 14.1454 10.7905 14.989 10.3015 15.5915C10.0571 15.8926 9.85363 16.1331 9.71148 16.2981C9.69893 16.3127 9.68687 16.3267 9.67529 16.34Z" fill="white" stroke="#1B1C1D" stroke-width="0.5"/>
<path d="M11.3003 6.96875C11.3003 7.86621 10.5728 8.59375 9.67529 8.59375C8.77783 8.59375 8.05029 7.86621 8.05029 6.96875C8.05029 6.07129 8.77783 5.34375 9.67529 5.34375C10.5728 5.34375 11.3003 6.07129 11.3003 6.96875Z" fill="white" stroke="#1B1C1D" stroke-width="0.5"/>
</svg>
