<svg width="19" height="19" viewBox="0 0 19 19" fill="none" xmlns="http://www.w3.org/2000/svg">
<path d="M9.66904 14.5961C9.88571 14.5961 10.0734 14.5211 10.232 14.3711C10.39 14.2211 10.469 14.0378 10.469 13.8211C10.469 13.5878 10.39 13.3961 10.232 13.2461C10.0734 13.0961 9.88571 13.0211 9.66904 13.0211C9.45238 13.0211 9.26904 13.0961 9.11904 13.2461C8.96904 13.3961 8.89404 13.5878 8.89404 13.8211C8.89404 14.0378 8.96904 14.2211 9.11904 14.3711C9.26904 14.5211 9.45238 14.5961 9.66904 14.5961ZM9.14404 11.2961H10.119C10.1524 10.8628 10.2357 10.5084 10.369 10.2331C10.5024 9.95843 10.7857 9.61276 11.219 9.19609C11.669 8.74609 12.0024 8.34609 12.219 7.99609C12.4357 7.64609 12.544 7.23776 12.544 6.77109C12.544 5.97109 12.2647 5.33776 11.706 4.87109C11.148 4.40443 10.494 4.17109 9.74404 4.17109C9.02738 4.17109 8.41904 4.36676 7.91904 4.75809C7.41904 5.15009 7.05238 5.60443 6.81904 6.12109L7.71904 6.49609C7.88571 6.12943 8.11904 5.80843 8.41904 5.53309C8.71904 5.25843 9.14404 5.12109 9.69404 5.12109C10.344 5.12109 10.819 5.29609 11.119 5.64609C11.419 5.99609 11.569 6.38776 11.569 6.82109C11.569 7.17109 11.4774 7.47943 11.294 7.74609C11.1107 8.01276 10.869 8.28776 10.569 8.57109C9.98571 9.10443 9.60238 9.55843 9.41904 9.93309C9.23571 10.3084 9.14404 10.7628 9.14404 11.2961ZM9.64404 18.3711C8.39404 18.3711 7.22338 18.1338 6.13204 17.6591C5.04004 17.1838 4.09004 16.5418 3.28204 15.7331C2.47338 14.9251 1.83138 13.9751 1.35604 12.8831C0.881376 11.7918 0.644043 10.6211 0.644043 9.37109C0.644043 8.12109 0.881376 6.95009 1.35604 5.85809C1.83138 4.76676 2.47338 3.81676 3.28204 3.00809C4.09004 2.20009 5.04004 1.55843 6.13204 1.08309C7.22338 0.608427 8.39404 0.371094 9.64404 0.371094C10.894 0.371094 12.065 0.608427 13.157 1.08309C14.2484 1.55843 15.1984 2.20009 16.007 3.00809C16.815 3.81676 17.4567 4.76676 17.932 5.85809C18.4067 6.95009 18.644 8.12109 18.644 9.37109C18.644 10.6211 18.4067 11.7918 17.932 12.8831C17.4567 13.9751 16.815 14.9251 16.007 15.7331C15.1984 16.5418 14.2484 17.1838 13.157 17.6591C12.065 18.1338 10.894 18.3711 9.64404 18.3711ZM9.64404 17.3711C11.8774 17.3711 13.769 16.5961 15.319 15.0461C16.869 13.4961 17.644 11.6044 17.644 9.37109C17.644 7.13776 16.869 5.24609 15.319 3.69609C13.769 2.14609 11.8774 1.37109 9.64404 1.37109C7.41071 1.37109 5.51904 2.14609 3.96904 3.69609C2.41904 5.24609 1.64404 7.13776 1.64404 9.37109C1.64404 11.6044 2.41904 13.4961 3.96904 15.0461C5.51904 16.5961 7.41071 17.3711 9.64404 17.3711Z" fill="#C8A07D"/>
</svg>
