<svg width="25" height="25" viewBox="0 0 25 25" fill="none" xmlns="http://www.w3.org/2000/svg">
<mask id="mask0_1631_12819" style="mask-type:alpha" maskUnits="userSpaceOnUse" x="0" y="0" width="25" height="25">
<rect x="0.718994" y="0.226562" width="24" height="24" fill="#D9D9D9"/>
</mask>
<g mask="url(#mask0_1631_12819)">
<path d="M20.319 20.873L14.1958 14.7498L14.0375 14.5916L13.8628 14.7313C13.386 15.1128 12.8356 15.4165 12.2095 15.6413C11.5883 15.8643 10.9253 15.9766 10.219 15.9766C8.46706 15.9766 6.99379 15.3728 5.78377 14.1628C4.57306 12.9521 3.96899 11.4785 3.96899 9.72656C3.96899 7.97467 4.57306 6.50105 5.78377 5.29034C6.99379 4.08032 8.46706 3.47656 10.219 3.47656C11.9709 3.47656 13.4446 4.08033 14.6553 5.29039C15.8653 6.50107 16.469 7.97467 16.469 9.72656C16.469 10.4329 16.3567 11.0958 16.1337 11.7171C15.9089 12.3432 15.6052 12.8935 15.2238 13.3704L15.084 13.5451L15.2422 13.7033L21.3654 19.8266L20.319 20.873ZM13.5837 13.0914L13.5838 13.0913C14.5059 12.1685 14.969 11.0421 14.969 9.72656C14.969 8.41105 14.5059 7.2846 13.5838 6.36185L13.5837 6.36172C12.661 5.43968 11.5345 4.97656 10.219 4.97656C8.90348 4.97656 7.77703 5.43968 6.85428 6.36172L6.85415 6.36185C5.93211 7.2846 5.46899 8.41105 5.46899 9.72656C5.46899 11.0421 5.93211 12.1685 6.85415 13.0913L6.85428 13.0914C7.77703 14.0134 8.90348 14.4766 10.219 14.4766C11.5345 14.4766 12.661 14.0134 13.5837 13.0914Z" fill="#11C6D1" stroke="black" stroke-width="0.5"/>
</g>
</svg>
