<svg width="25" height="24" viewBox="0 0 25 24" fill="none" xmlns="http://www.w3.org/2000/svg">
<g id="settings_24px">
<g id="icon/action/settings_24px">
<mask id="path-1-inside-1" fill="white">
<path fill-rule="evenodd" clip-rule="evenodd" d="M19.5457 12C19.5457 12.34 19.5157 12.66 19.4757 12.98L21.5857 14.63C21.7757 14.78 21.8257 15.05 21.7057 15.27L19.7057 18.73C19.5857 18.95 19.3257 19.04 19.0957 18.95L16.6057 17.95C16.0857 18.34 15.5257 18.68 14.9157 18.93L14.5357 21.58C14.5057 21.82 14.2957 22 14.0457 22H10.0457C9.79568 22 9.58568 21.82 9.55568 21.58L9.17568 18.93C8.56568 18.68 8.00568 18.35 7.48568 17.95L4.99568 18.95C4.77568 19.03 4.50568 18.95 4.38568 18.73L2.38568 15.27C2.26568 15.05 2.31568 14.78 2.50568 14.63L4.61568 12.98C4.57568 12.66 4.54568 12.33 4.54568 12C4.54568 11.67 4.57568 11.34 4.61568 11.02L2.50568 9.37C2.31568 9.22 2.25568 8.95 2.38568 8.73L4.38568 5.27C4.50568 5.05 4.76568 4.96 4.99568 5.05L7.48568 6.05C8.00568 5.66 8.56568 5.32 9.17568 5.07L9.55568 2.42C9.58568 2.18 9.79568 2 10.0457 2H14.0457C14.2957 2 14.5057 2.18 14.5357 2.42L14.9157 5.07C15.5257 5.32 16.0857 5.65 16.6057 6.05L19.0957 5.05C19.3157 4.97 19.5857 5.05 19.7057 5.27L21.7057 8.73C21.8257 8.95 21.7757 9.22 21.5857 9.37L19.4757 11.02C19.5157 11.34 19.5457 11.66 19.5457 12ZM8.54568 12C8.54568 13.93 10.1157 15.5 12.0457 15.5C13.9757 15.5 15.5457 13.93 15.5457 12C15.5457 10.07 13.9757 8.5 12.0457 8.5C10.1157 8.5 8.54568 10.07 8.54568 12Z"/>
</mask>
<path fill-rule="evenodd" clip-rule="evenodd" d="M19.5457 12C19.5457 12.34 19.5157 12.66 19.4757 12.98L21.5857 14.63C21.7757 14.78 21.8257 15.05 21.7057 15.27L19.7057 18.73C19.5857 18.95 19.3257 19.04 19.0957 18.95L16.6057 17.95C16.0857 18.34 15.5257 18.68 14.9157 18.93L14.5357 21.58C14.5057 21.82 14.2957 22 14.0457 22H10.0457C9.79568 22 9.58568 21.82 9.55568 21.58L9.17568 18.93C8.56568 18.68 8.00568 18.35 7.48568 17.95L4.99568 18.95C4.77568 19.03 4.50568 18.95 4.38568 18.73L2.38568 15.27C2.26568 15.05 2.31568 14.78 2.50568 14.63L4.61568 12.98C4.57568 12.66 4.54568 12.33 4.54568 12C4.54568 11.67 4.57568 11.34 4.61568 11.02L2.50568 9.37C2.31568 9.22 2.25568 8.95 2.38568 8.73L4.38568 5.27C4.50568 5.05 4.76568 4.96 4.99568 5.05L7.48568 6.05C8.00568 5.66 8.56568 5.32 9.17568 5.07L9.55568 2.42C9.58568 2.18 9.79568 2 10.0457 2H14.0457C14.2957 2 14.5057 2.18 14.5357 2.42L14.9157 5.07C15.5257 5.32 16.0857 5.65 16.6057 6.05L19.0957 5.05C19.3157 4.97 19.5857 5.05 19.7057 5.27L21.7057 8.73C21.8257 8.95 21.7757 9.22 21.5857 9.37L19.4757 11.02C19.5157 11.34 19.5457 11.66 19.5457 12ZM8.54568 12C8.54568 13.93 10.1157 15.5 12.0457 15.5C13.9757 15.5 15.5457 13.93 15.5457 12C15.5457 10.07 13.9757 8.5 12.0457 8.5C10.1157 8.5 8.54568 10.07 8.54568 12Z" fill="#A4A6AE"/>
<path d="M19.4757 12.98L17.9873 12.7939L17.8818 13.6378L18.5517 14.1616L19.4757 12.98ZM21.5857 14.63L22.5152 13.4527L22.5097 13.4484L21.5857 14.63ZM21.7057 15.27L23.0043 16.0207L23.0136 16.0046L23.0225 15.9883L21.7057 15.27ZM19.7057 18.73L18.407 17.9793L18.3977 17.9954L18.3888 18.0117L19.7057 18.73ZM19.0957 18.95L18.5366 20.342L18.5491 20.3469L19.0957 18.95ZM16.6057 17.95L17.1647 16.5581L16.3812 16.2434L15.7057 16.75L16.6057 17.95ZM14.9157 18.93L14.3468 17.542L13.5527 17.8675L13.4309 18.7171L14.9157 18.93ZM14.5357 21.58L13.0509 21.3671L13.0489 21.3805L13.0473 21.3939L14.5357 21.58ZM9.55568 21.58L11.0441 21.3939L11.0424 21.3805L11.0405 21.3671L9.55568 21.58ZM9.17568 18.93L10.6605 18.7171L10.5387 17.8675L9.74451 17.542L9.17568 18.93ZM7.48568 17.95L8.40024 16.7611L7.72141 16.2389L6.92666 16.5581L7.48568 17.95ZM4.99568 18.95L5.50829 20.3597L5.53164 20.3512L5.55469 20.3419L4.99568 18.95ZM4.38568 18.73L5.70252 18.0117L5.69363 17.9954L5.68433 17.9793L4.38568 18.73ZM2.38568 15.27L1.06883 15.9883L1.07773 16.0046L1.08702 16.0207L2.38568 15.27ZM2.50568 14.63L1.58166 13.4484L1.57621 13.4527L2.50568 14.63ZM4.61568 12.98L5.53969 14.1616L6.20957 13.6378L6.10409 12.7939L4.61568 12.98ZM4.61568 11.02L6.10409 11.2061L6.20957 10.3622L5.53969 9.83839L4.61568 11.02ZM2.50568 9.37L1.5762 10.5473L1.58167 10.5516L2.50568 9.37ZM2.38568 8.73L3.67707 9.49309L3.68073 9.4869L3.68433 9.48067L2.38568 8.73ZM4.38568 5.27L5.68433 6.02067L5.69363 6.00458L5.70252 5.98828L4.38568 5.27ZM4.99568 5.05L5.55471 3.658L5.54228 3.65314L4.99568 5.05ZM7.48568 6.05L6.92666 7.44194L7.71019 7.75661L8.38568 7.25L7.48568 6.05ZM9.17568 5.07L9.74451 6.45796L10.5387 6.13249L10.6605 5.28292L9.17568 5.07ZM9.55568 2.42L11.0405 2.63292L11.0424 2.6195L11.0441 2.60605L9.55568 2.42ZM14.5357 2.42L13.0473 2.60605L13.0489 2.6195L13.0509 2.63292L14.5357 2.42ZM14.9157 5.07L13.4309 5.28292L13.5527 6.13249L14.3468 6.45796L14.9157 5.07ZM16.6057 6.05L15.6911 7.23894L16.3699 7.76112L17.1647 7.44194L16.6057 6.05ZM19.0957 5.05L18.5831 3.64031L18.5597 3.6488L18.5367 3.65806L19.0957 5.05ZM19.7057 5.27L18.3888 5.98828L18.3977 6.00459L18.407 6.02067L19.7057 5.27ZM21.7057 8.73L23.0225 8.01172L23.0136 7.99541L23.0043 7.97933L21.7057 8.73ZM21.5857 9.37L22.5097 10.5516L22.5151 10.5473L21.5857 9.37ZM19.4757 11.02L18.5517 9.83839L17.8818 10.3622L17.9873 11.2061L19.4757 11.02ZM20.9641 13.1661C21.0078 12.8168 21.0457 12.428 21.0457 12H18.0457C18.0457 12.252 18.0236 12.5032 17.9873 12.7939L20.9641 13.1661ZM22.5097 13.4484L20.3997 11.7984L18.5517 14.1616L20.6617 15.8116L22.5097 13.4484ZM23.0225 15.9883C23.4712 15.1656 23.3133 14.0828 22.5151 13.4527L20.6562 15.8073C20.238 15.4772 20.1801 14.9344 20.3888 14.5517L23.0225 15.9883ZM21.0043 19.4807L23.0043 16.0207L20.407 14.5193L18.407 17.9793L21.0043 19.4807ZM18.5491 20.3469C19.4652 20.7054 20.532 20.3475 21.0225 19.4483L18.3888 18.0117C18.6393 17.5525 19.1861 17.3746 19.6423 17.5531L18.5491 20.3469ZM16.0467 19.3419L18.5367 20.3419L19.6547 17.5581L17.1647 16.5581L16.0467 19.3419ZM15.4845 20.318C16.2377 20.0093 16.9081 19.5982 17.5057 19.15L15.7057 16.75C15.2632 17.0818 14.8137 17.3507 14.3468 17.542L15.4845 20.318ZM16.0205 21.7929L16.4005 19.1429L13.4309 18.7171L13.0509 21.3671L16.0205 21.7929ZM14.0457 23.5C15.0129 23.5 15.8955 22.795 16.0241 21.7661L13.0473 21.3939C13.1159 20.845 13.5784 20.5 14.0457 20.5V23.5ZM10.0457 23.5H14.0457V20.5H10.0457V23.5ZM8.06726 21.7661C8.19588 22.795 9.07844 23.5 10.0457 23.5V20.5C10.5129 20.5 10.9755 20.845 11.0441 21.3939L8.06726 21.7661ZM7.69087 19.1429L8.07087 21.7929L11.0405 21.3671L10.6605 18.7171L7.69087 19.1429ZM6.57111 19.1389C7.18897 19.6142 7.86423 20.0136 8.60684 20.318L9.74451 17.542C9.26712 17.3464 8.82239 17.0858 8.40024 16.7611L6.57111 19.1389ZM5.55469 20.3419L8.04469 19.3419L6.92666 16.5581L4.43666 17.5581L5.55469 20.3419ZM3.06883 19.4483C3.58453 20.3937 4.67419 20.663 5.50829 20.3597L4.48306 17.5403C4.87716 17.397 5.42683 17.5063 5.70252 18.0117L3.06883 19.4483ZM1.08702 16.0207L3.08702 19.4807L5.68433 17.9793L3.68433 14.5193L1.08702 16.0207ZM1.57621 13.4527C0.77802 14.0828 0.620126 15.1656 1.06883 15.9883L3.70252 14.5517C3.91123 14.9344 3.85333 15.4772 3.43514 15.8073L1.57621 13.4527ZM3.69167 11.7984L1.58167 13.4484L3.42969 15.8116L5.53969 14.1616L3.69167 11.7984ZM3.04568 12C3.04568 12.4171 3.08342 12.8153 3.12726 13.1661L6.10409 12.7939C6.06793 12.5047 6.04568 12.2429 6.04568 12H3.04568ZM3.12726 10.8339C3.08342 11.1847 3.04568 11.5829 3.04568 12H6.04568C6.04568 11.7571 6.06793 11.4953 6.10409 11.2061L3.12726 10.8339ZM1.58167 10.5516L3.69167 12.2016L5.53969 9.83839L3.42969 8.18839L1.58167 10.5516ZM1.09429 7.96691C0.5678 8.85788 0.819867 9.95021 1.57621 10.5473L3.43514 8.19268C3.81149 8.48979 3.94355 9.04212 3.67707 9.49309L1.09429 7.96691ZM3.08702 4.51933L1.08702 7.97933L3.68433 9.48067L5.68433 6.02067L3.08702 4.51933ZM5.54228 3.65314C4.62615 3.29465 3.55935 3.65245 3.06883 4.55172L5.70252 5.98828C5.45201 6.44755 4.9052 6.62535 4.44908 6.44686L5.54228 3.65314ZM8.04469 4.65806L5.55469 3.65806L4.43666 6.44194L6.92666 7.44194L8.04469 4.65806ZM8.60684 3.68204C7.85368 3.99071 7.18323 4.40184 6.58568 4.85L8.38568 7.25C8.82813 6.91816 9.27767 6.64929 9.74451 6.45796L8.60684 3.68204ZM8.07087 2.20708L7.69087 4.85708L10.6605 5.28292L11.0405 2.63292L8.07087 2.20708ZM10.0457 0.5C9.07845 0.5 8.19588 1.20499 8.06726 2.23395L11.0441 2.60605C10.9755 3.15501 10.5129 3.5 10.0457 3.5V0.5ZM14.0457 0.5H10.0457V3.5H14.0457V0.5ZM16.0241 2.23395C15.8955 1.20499 15.0129 0.5 14.0457 0.5V3.5C13.5784 3.5 13.1159 3.15501 13.0473 2.60605L16.0241 2.23395ZM16.4005 4.85708L16.0205 2.20708L13.0509 2.63292L13.4309 5.28292L16.4005 4.85708ZM17.5202 4.86106C16.9024 4.38579 16.2271 3.98639 15.4845 3.68204L14.3468 6.45796C14.8242 6.65361 15.269 6.91421 15.6911 7.23894L17.5202 4.86106ZM18.5367 3.65806L16.0467 4.65806L17.1647 7.44194L19.6547 6.44194L18.5367 3.65806ZM21.0225 4.55172C20.5068 3.60628 19.4172 3.337 18.5831 3.64031L19.6083 6.45969C19.2142 6.603 18.6645 6.49372 18.3888 5.98828L21.0225 4.55172ZM23.0043 7.97933L21.0043 4.51933L18.407 6.02067L20.407 9.48067L23.0043 7.97933ZM22.5151 10.5473C23.3133 9.91718 23.4712 8.83436 23.0225 8.01172L20.3888 9.44828C20.1801 9.06564 20.238 8.52282 20.6562 8.19267L22.5151 10.5473ZM20.3997 12.2016L22.5097 10.5516L20.6617 8.18839L18.5517 9.83839L20.3997 12.2016ZM21.0457 12C21.0457 11.572 21.0078 11.1832 20.9641 10.8339L17.9873 11.2061C18.0236 11.4968 18.0457 11.748 18.0457 12H21.0457ZM12.0457 14C10.9441 14 10.0457 13.1016 10.0457 12H7.04568C7.04568 14.7584 9.28725 17 12.0457 17V14ZM14.0457 12C14.0457 13.1016 13.1472 14 12.0457 14V17C14.8041 17 17.0457 14.7584 17.0457 12H14.0457ZM12.0457 10C13.1472 10 14.0457 10.8984 14.0457 12H17.0457C17.0457 9.24157 14.8041 7 12.0457 7V10ZM10.0457 12C10.0457 10.8984 10.9441 10 12.0457 10V7C9.28725 7 7.04568 9.24157 7.04568 12H10.0457Z" fill="#191A1C" mask="url(#path-1-inside-1)"/>
</g>
</g>
</svg>
