<svg width="20" height="20" viewBox="0 0 20 20" fill="none" xmlns="http://www.w3.org/2000/svg">
<path d="M7.50833 15.7417L8.26667 14.9833L5.99167 12.7083H11.0833V11.625H5.99167L8.26667 9.35L7.50833 8.59167L3.90625 12.1667L7.50833 15.7417ZM12.4917 11.4083L16.0938 7.83333L12.4917 4.25833L11.7333 5.01667L14.0083 7.29167H8.91667V8.375H14.0083L11.7333 10.65L12.4917 11.4083ZM10 19.75C8.64583 19.75 7.37761 19.4929 6.19533 18.9787C5.01233 18.4637 3.98317 17.7682 3.10783 16.8922C2.23178 16.0168 1.53628 14.9877 1.02133 13.8047C0.507111 12.6224 0.25 11.3542 0.25 10C0.25 8.64583 0.507111 7.37725 1.02133 6.19425C1.53628 5.01197 2.23178 3.98281 3.10783 3.10675C3.98317 2.23142 5.01233 1.53628 6.19533 1.02133C7.37761 0.507111 8.64583 0.25 10 0.25C11.3542 0.25 12.6228 0.507111 13.8057 1.02133C14.988 1.53628 16.0172 2.23142 16.8933 3.10675C17.7686 3.98281 18.4637 5.01197 18.9787 6.19425C19.4929 7.37725 19.75 8.64583 19.75 10C19.75 11.3542 19.4929 12.6224 18.9787 13.8047C18.4637 14.9877 17.7686 16.0168 16.8933 16.8922C16.0172 17.7682 14.988 18.4637 13.8057 18.9787C12.6228 19.4929 11.3542 19.75 10 19.75ZM10 18.6667C12.4194 18.6667 14.4688 17.8271 16.1479 16.1479C17.8271 14.4688 18.6667 12.4194 18.6667 10C18.6667 7.58056 17.8271 5.53125 16.1479 3.85208C14.4688 2.17292 12.4194 1.33333 10 1.33333C7.58056 1.33333 5.53125 2.17292 3.85208 3.85208C2.17292 5.53125 1.33333 7.58056 1.33333 10C1.33333 12.4194 2.17292 14.4688 3.85208 16.1479C5.53125 17.8271 7.58056 18.6667 10 18.6667Z" fill="#11C6D1"/>
</svg>
