<svg width="35" height="35" viewBox="0 0 35 35" fill="none" xmlns="http://www.w3.org/2000/svg">
<path d="M17.5995 34.2629C14.2106 34.2629 11.1762 33.3601 8.49621 31.5546C5.81511 29.749 3.794 27.3324 2.4329 24.3046V29.7629H0.766235V21.4296H9.09954V23.0963H3.76623C4.84956 25.9574 6.65511 28.2563 9.18288 29.9929C11.7106 31.7285 14.5162 32.5963 17.5995 32.5963C19.5995 32.5963 21.4745 32.2351 23.2245 31.5129C24.9745 30.7907 26.5234 29.8046 27.8712 28.5546C29.2178 27.3046 30.3078 25.8113 31.1411 24.0746C31.9745 22.3391 32.4467 20.4574 32.5578 18.4296H34.2245C34.1134 20.6241 33.5995 22.6863 32.6828 24.6163C31.7661 26.5474 30.5717 28.2279 29.0995 29.6579C27.6273 31.089 25.8978 32.214 23.9112 33.0329C21.9256 33.8529 19.8217 34.2629 17.5995 34.2629ZM16.7245 28.6379V26.5963C15.6134 26.3185 14.6551 25.8602 13.8495 25.2213C13.044 24.5824 12.4051 23.6935 11.9329 22.5546L13.3912 21.9296C13.8634 22.9574 14.4818 23.7491 15.2462 24.3046C16.0095 24.8602 16.8773 25.1379 17.8495 25.1379C18.8217 25.1379 19.7384 24.8807 20.5995 24.3663C21.4606 23.853 21.8912 23.013 21.8912 21.8463C21.8912 20.9018 21.5856 20.1657 20.9745 19.638C20.3634 19.1102 19.1551 18.513 17.3495 17.8463C15.5717 17.2074 14.3006 16.5269 13.5362 15.8046C12.7729 15.0824 12.3912 14.1241 12.3912 12.9297C12.3912 11.9297 12.7729 10.9991 13.5362 10.138C14.3006 9.27688 15.3912 8.73522 16.8079 8.513V6.55467H18.4745V8.513C19.3356 8.59633 20.1412 8.90189 20.8912 9.42966C21.6412 9.95744 22.2106 10.6241 22.5995 11.4297L21.1828 12.013C20.8217 11.4297 20.3562 10.9435 19.7862 10.5547C19.2173 10.1658 18.5162 9.97133 17.6829 9.97133C16.5717 9.97133 15.6901 10.2491 15.0379 10.8047C14.3845 11.3602 14.0579 12.0685 14.0579 12.9297C14.0579 13.7908 14.3079 14.4502 14.8079 14.908C15.3079 15.3669 16.4884 15.9158 18.3495 16.5546C20.3495 17.2769 21.7034 18.0474 22.4112 18.8663C23.1201 19.6863 23.4745 20.6796 23.4745 21.8463C23.4745 22.6241 23.3151 23.3113 22.9962 23.908C22.6762 24.5057 22.2734 24.9991 21.7878 25.3879C21.3012 25.7768 20.7595 26.0752 20.1628 26.2829C19.5651 26.4918 18.9745 26.6241 18.3912 26.6796V28.6379H16.7245ZM0.974568 16.763C1.11346 14.4574 1.65512 12.3324 2.59956 10.388C3.544 8.44355 4.76622 6.76967 6.26622 5.36634C7.76621 3.96412 9.48843 2.87413 11.4329 2.09635C13.3773 1.31858 15.4329 0.929688 17.5995 0.929688C20.9328 0.929688 23.9745 1.83246 26.7245 3.63801C29.4745 5.44356 31.4884 7.90189 32.7661 11.013V5.42967H34.4328V13.763H26.0995V12.0963H31.4328C30.4328 9.31855 28.655 7.04078 26.0995 5.26301C23.5439 3.48524 20.7106 2.59635 17.5995 2.59635C15.6829 2.59635 13.8568 2.94357 12.1212 3.63801C10.3845 4.33245 8.83566 5.29745 7.47455 6.533C6.11344 7.76967 4.99567 9.25577 4.12123 10.9913C3.24567 12.728 2.75234 14.6519 2.64123 16.763H0.974568Z" fill="#11C6D1"/>
</svg>
