<?xml version="1.0" encoding="utf-8"?>
<!-- Generator: Adobe Illustrator 21.1.0, SVG Export Plug-In . SVG Version: 6.00 Build 0)  -->
<svg version="1.1" id="Layer_1" xmlns="http://www.w3.org/2000/svg" xmlns:xlink="http://www.w3.org/1999/xlink" x="0px" y="0px"
	 viewBox="0 0 20.9 20.9" style="enable-background:new 0 0 20.9 20.9;" xml:space="preserve">
<style type="text/css">
	.st0{fill:#11C6D1;}
</style>
<path class="st0" d="M10.9,4.4l0.8,0.8L7.2,9.8h9.7V11H7.2l4.6,4.6l-0.8,0.8l-6-6L10.9,4.4z"/>
<path class="st0" d="M19.4,6.7c-0.5-1.2-1.2-2.2-2.1-3.1c-0.9-0.9-1.9-1.6-3.1-2.1c-1.2-0.5-2.5-0.8-3.8-0.8S7.8,1,6.7,1.5
	C5.5,2,4.5,2.7,3.6,3.6C2.7,4.5,2,5.5,1.5,6.7C1,7.8,0.7,9.1,0.7,10.5s0.3,2.6,0.8,3.8c0.5,1.2,1.2,2.2,2.1,3.1
	c0.9,0.9,1.9,1.6,3.1,2.1c1.2,0.5,2.5,0.8,3.8,0.8s2.6-0.3,3.8-0.8c1.2-0.5,2.2-1.2,3.1-2.1c0.9-0.9,1.6-1.9,2.1-3.1
	c0.5-1.2,0.8-2.5,0.8-3.8S20,7.8,19.4,6.7z M16.6,16.6c-1.7,1.7-3.7,2.5-6.1,2.5c-2.4,0-4.5-0.8-6.1-2.5c-1.7-1.7-2.5-3.7-2.5-6.1
	c0-2.4,0.8-4.5,2.5-6.1C6,2.6,8.1,1.8,10.5,1.8c2.4,0,4.5,0.8,6.1,2.5c1.7,1.7,2.5,3.7,2.5,6.1C19.1,12.9,18.3,14.9,16.6,16.6z"/>
</svg>
