<svg width="21" height="19" viewBox="0 0 21 19" fill="none" xmlns="http://www.w3.org/2000/svg">
<path d="M16.9198 5H14.3198L8.58984 2L2.08984 5.4V15C0.989844 15 0.0898438 14.1 0.0898438 13V5.17C0.0898438 4.64 0.409844 4.08 0.889844 3.83L8.58984 0L16.1298 3.83C16.5598 4.06 16.8598 4.53 16.9198 5ZM18.0898 6H5.08984C3.98984 6 3.08984 6.9 3.08984 8V17C3.08984 18.1 3.98984 19 5.08984 19H18.0898C19.1898 19 20.0898 18.1 20.0898 17V8C20.0898 6.9 19.1898 6 18.0898 6ZM18.0898 9.67L11.5898 13L5.08984 9.67V8L11.5898 11.33L18.0898 8V9.67Z" fill="#6F7381"/>
</svg>
