<svg width="19" height="15" viewBox="0 0 19 15" fill="none" xmlns="http://www.w3.org/2000/svg">
<path d="M3.04297 14.4492C2.20964 14.4492 1.5013 14.1576 0.917969 13.5742C0.334635 12.9909 0.0429688 12.2826 0.0429688 11.4492V3.44922C0.0429688 2.61589 0.334635 1.90755 0.917969 1.32422C1.5013 0.740885 2.20964 0.449219 3.04297 0.449219H15.043C15.8763 0.449219 16.5846 0.740885 17.168 1.32422C17.7513 1.90755 18.043 2.61589 18.043 3.44922V11.4492C18.043 12.2826 17.7513 12.9909 17.168 13.5742C16.5846 14.1576 15.8763 14.4492 15.043 14.4492H3.04297ZM3.04297 3.94922H15.043C15.443 3.94922 15.8096 4.01589 16.143 4.14922C16.4763 4.28255 16.7763 4.48255 17.043 4.74922V3.44922C17.043 2.89922 16.8473 2.42855 16.456 2.03722C16.064 1.64522 15.593 1.44922 15.043 1.44922H3.04297C2.49297 1.44922 2.0223 1.64522 1.63097 2.03722C1.23897 2.42855 1.04297 2.89922 1.04297 3.44922V4.74922C1.30964 4.48255 1.60964 4.28255 1.94297 4.14922C2.2763 4.01589 2.64297 3.94922 3.04297 3.94922ZM1.06797 6.67422L12.418 9.44922C12.5346 9.48255 12.6596 9.48255 12.793 9.44922C12.9263 9.41588 13.043 9.35755 13.143 9.27422L16.868 6.12422C16.718 5.77422 16.4806 5.49089 16.156 5.27422C15.8306 5.05755 15.4596 4.94922 15.043 4.94922H3.04297C2.5263 4.94922 2.08464 5.11189 1.71797 5.43722C1.3513 5.76189 1.13464 6.17422 1.06797 6.67422Z" fill="#C8A07D"/>
</svg>
