<svg width="187" height="130" viewBox="0 0 187 130" fill="none" xmlns="http://www.w3.org/2000/svg">
<path d="M120.292 68.153C115.177 68.153 111.006 63.9463 111.006 58.7874C111.006 53.6286 115.177 49.4219 120.292 49.4219C125.407 49.4219 129.578 53.6286 129.578 58.7874C129.578 63.9463 125.407 68.153 120.292 68.153ZM120.292 50.2888C115.642 50.2888 111.851 54.1118 111.851 58.8016C111.851 63.4915 115.642 67.3145 120.292 67.3145C124.942 67.3145 128.732 63.4915 128.732 58.8016C128.732 54.0975 124.942 50.2888 120.292 50.2888Z" fill="#FFC695"/>
<path d="M120.293 74.9772H110.612C110.373 74.9772 110.189 74.7925 110.189 74.5509V69.4915C110.189 69.3351 110.274 69.2072 110.401 69.122C110.528 69.0509 110.683 69.0367 110.824 69.122C110.852 69.1362 111.739 69.6052 113.163 69.0935C114.318 68.6814 114.882 66.8481 114.994 66.1801C115.037 65.9527 115.262 65.7964 115.488 65.839C115.713 65.8817 115.868 66.1091 115.826 66.3365C115.798 66.4502 115.276 69.2357 113.444 69.9036C112.402 70.2731 111.57 70.2163 111.049 70.1026V74.1387H120.307C120.546 74.1387 120.729 74.3235 120.729 74.5651C120.729 74.8067 120.518 74.9772 120.293 74.9772Z" fill="#FFC695"/>
<path d="M120.291 129.307H99.4227C99.1832 129.307 99 129.122 99 128.88V121.703C99 121.462 99.1832 121.277 99.4227 121.277H102.805C103.791 121.277 104.524 121.021 104.975 120.524C105.454 119.998 105.524 119.33 105.524 119.06C102.607 115.791 101.663 111.585 102.805 106.881C103.509 103.981 104.791 101.75 105.285 100.968C104.96 100.627 104.552 100.073 104.763 99.4905C105.087 98.6378 106.553 98.5099 107.187 98.4814C107.934 97.8561 112.189 94.1611 113.838 90.7218C115.641 86.9699 115.782 74.6768 115.782 74.5631C115.782 74.3357 115.98 74.1367 116.205 74.1367C116.445 74.1367 116.628 74.3357 116.628 74.5631C116.628 75.0747 116.487 87.1689 114.599 91.0913C112.71 95.0138 107.807 99.0641 107.61 99.2347C107.539 99.2915 107.44 99.3341 107.342 99.3341C106.51 99.3341 105.637 99.5615 105.552 99.7889C105.524 99.86 105.609 100.13 106.102 100.585C106.257 100.727 106.285 100.968 106.172 101.139C106.158 101.167 104.453 103.697 103.622 107.108C102.523 111.627 103.41 115.493 106.257 118.605C106.327 118.676 106.355 118.762 106.37 118.861C106.37 118.918 106.468 120.154 105.595 121.107C104.975 121.789 104.03 122.144 102.805 122.144H99.8455V128.468H120.291C120.531 128.468 120.714 128.653 120.714 128.895C120.714 129.136 120.517 129.307 120.291 129.307Z" fill="#FFC695"/>
<path d="M129.959 74.9758H120.278C120.039 74.9758 119.855 74.791 119.855 74.5494C119.855 74.3078 120.039 74.1231 120.278 74.1231H129.536V70.0869C129 70.2149 128.169 70.2717 127.14 69.888C125.295 69.22 124.773 66.4345 124.759 66.3208C124.717 66.0934 124.872 65.8661 125.097 65.8234C125.323 65.7808 125.548 65.9371 125.59 66.1645C125.59 66.1929 126.041 68.5805 127.422 69.0779C128.831 69.5895 129.747 69.1063 129.761 69.1063C129.888 69.0353 130.057 69.0353 130.184 69.1063C130.311 69.1774 130.395 69.3195 130.395 69.4758V74.5352C130.381 74.791 130.198 74.9758 129.959 74.9758Z" fill="#FFC695"/>
<path d="M141.161 129.307H120.292C120.052 129.307 119.869 129.122 119.869 128.88C119.869 128.639 120.052 128.454 120.292 128.454H140.738V122.13H137.779C136.553 122.13 135.609 121.789 134.989 121.092C134.115 120.14 134.214 118.889 134.214 118.847C134.228 118.747 134.256 118.662 134.326 118.591C137.173 115.479 138.061 111.613 136.947 107.08C136.116 103.669 134.425 101.153 134.397 101.139C134.27 100.968 134.298 100.727 134.467 100.585C134.975 100.13 135.059 99.86 135.017 99.7889C134.932 99.5615 134.059 99.3341 133.227 99.3341C133.129 99.3341 133.03 99.3057 132.96 99.2347C132.748 99.0641 127.859 95.0138 125.971 91.0913C124.082 87.1689 123.956 75.0747 123.941 74.5631C123.941 74.3215 124.125 74.1367 124.364 74.1367C124.59 74.1367 124.787 74.3215 124.787 74.5631C124.787 74.691 124.928 86.9699 126.731 90.7218C128.38 94.1611 132.636 97.8561 133.382 98.4814C134.016 98.4956 135.482 98.6378 135.806 99.4905C136.031 100.073 135.609 100.627 135.285 100.968C135.778 101.764 137.046 103.996 137.765 106.881C138.906 111.585 137.976 115.791 135.045 119.06C135.059 119.344 135.13 120.012 135.609 120.538C136.074 121.035 136.792 121.291 137.779 121.291H141.161C141.4 121.291 141.583 121.476 141.583 121.718V128.895C141.583 129.122 141.386 129.307 141.161 129.307Z" fill="#FFC695"/>
<path d="M133.172 99.2629H107.399C107.16 99.2629 106.977 99.0781 106.977 98.8365C106.977 98.5949 107.16 98.4102 107.399 98.4102H133.172C133.411 98.4102 133.594 98.5949 133.594 98.8365C133.594 99.0781 133.411 99.2629 133.172 99.2629Z" fill="#FFC695"/>
<path d="M134.749 101.325H105.835C105.595 101.325 105.412 101.141 105.412 100.899C105.412 100.657 105.595 100.473 105.835 100.473H134.749C134.989 100.473 135.172 100.657 135.172 100.899C135.172 101.141 134.975 101.325 134.749 101.325Z" fill="#FFC695"/>
<path d="M165.411 68.153C160.296 68.153 156.125 63.9463 156.125 58.7874C156.125 53.6286 160.296 49.4219 165.411 49.4219C170.526 49.4219 174.697 53.6286 174.697 58.7874C174.697 63.9463 170.526 68.153 165.411 68.153ZM165.411 50.2888C160.761 50.2888 156.97 54.1118 156.97 58.8016C156.97 63.4915 160.761 67.3145 165.411 67.3145C170.061 67.3145 173.851 63.4915 173.851 58.8016C173.851 54.0975 170.061 50.2888 165.411 50.2888Z" fill="#FFC695"/>
<path d="M165.412 74.9772H155.731C155.492 74.9772 155.309 74.7925 155.309 74.5509V69.4915C155.309 69.3351 155.393 69.2072 155.52 69.122C155.647 69.0509 155.802 69.0367 155.943 69.122C155.971 69.1362 156.859 69.6052 158.282 69.0935C159.663 68.5961 160.114 66.1943 160.114 66.1801C160.156 65.9527 160.381 65.7964 160.607 65.839C160.832 65.8817 160.987 66.1091 160.945 66.3365C160.917 66.4502 160.395 69.2357 158.564 69.9036C157.521 70.2731 156.69 70.2163 156.168 70.1026V74.1387H165.426C165.665 74.1387 165.849 74.3235 165.849 74.5651C165.849 74.8067 165.637 74.9772 165.412 74.9772Z" fill="#FFC695"/>
<path d="M165.411 129.307H144.542C144.302 129.307 144.119 129.122 144.119 128.88V121.703C144.119 121.462 144.302 121.277 144.542 121.277H147.924C148.91 121.277 149.643 121.021 150.094 120.524C150.573 119.998 150.643 119.33 150.643 119.06C147.726 115.791 146.782 111.585 147.924 106.881C148.628 103.981 149.911 101.75 150.404 100.968C150.08 100.627 149.671 100.073 149.882 99.4905C150.206 98.6378 151.672 98.5099 152.306 98.4814C153.053 97.8561 157.308 94.1611 158.957 90.7218C160.761 86.9699 160.901 74.6768 160.901 74.5631C160.901 74.3357 161.099 74.1367 161.324 74.1367C161.564 74.1367 161.747 74.3357 161.747 74.5631C161.747 75.0747 161.606 87.1689 159.718 91.0913C157.83 95.0138 152.926 99.0641 152.729 99.2347C152.658 99.2915 152.56 99.3341 152.461 99.3341C151.63 99.3341 150.756 99.5615 150.671 99.7889C150.643 99.86 150.728 100.13 151.221 100.585C151.376 100.727 151.404 100.968 151.291 101.139C151.277 101.167 149.572 103.697 148.741 107.108C147.642 111.627 148.53 115.493 151.376 118.605C151.446 118.676 151.475 118.762 151.489 118.861C151.489 118.918 151.587 120.154 150.714 121.107C150.094 121.789 149.15 122.144 147.924 122.144H144.965V128.468H165.411C165.65 128.468 165.833 128.653 165.833 128.895C165.833 129.136 165.636 129.307 165.411 129.307Z" fill="#FFC695"/>
<path d="M175.091 74.9758H165.411C165.171 74.9758 164.988 74.791 164.988 74.5494C164.988 74.3078 165.171 74.1231 165.411 74.1231H174.669V70.0869C174.133 70.2149 173.302 70.2717 172.273 69.888C170.427 69.22 169.906 66.4345 169.892 66.3208C169.85 66.0934 170.005 65.8661 170.23 65.8234C170.456 65.7808 170.681 65.9371 170.723 66.1645C170.723 66.1929 171.174 68.5805 172.555 69.0779C173.964 69.5895 174.852 69.1206 174.894 69.1063C175.021 69.0353 175.19 69.0353 175.317 69.1206C175.444 69.1916 175.528 69.3337 175.528 69.4901V74.5494C175.514 74.791 175.317 74.9758 175.091 74.9758Z" fill="#FFC695"/>
<path d="M186.28 129.307H165.411C165.171 129.307 164.988 129.122 164.988 128.88C164.988 128.639 165.171 128.454 165.411 128.454H185.857V122.13H182.898C181.672 122.13 180.728 121.789 180.108 121.092C179.234 120.14 179.333 118.889 179.333 118.847C179.347 118.747 179.375 118.662 179.446 118.591C182.292 115.479 183.18 111.613 182.066 107.08C181.235 103.669 179.544 101.153 179.516 101.139C179.389 100.968 179.417 100.727 179.586 100.585C180.094 100.13 180.178 99.86 180.136 99.7889C180.051 99.5615 179.178 99.3341 178.346 99.3341C178.248 99.3341 178.149 99.3057 178.079 99.2347C177.867 99.0641 172.978 95.0138 171.09 91.0913C169.201 87.1689 169.075 75.0747 169.061 74.5631C169.061 74.3215 169.244 74.1367 169.483 74.1367C169.709 74.1367 169.906 74.3215 169.906 74.5631C169.906 74.691 170.047 86.9699 171.851 90.7218C173.499 94.1611 177.755 97.8561 178.501 98.4814C179.136 98.4956 180.601 98.6378 180.925 99.4905C181.151 100.073 180.728 100.627 180.404 100.968C180.897 101.764 182.165 103.996 182.884 106.881C184.025 111.585 183.095 115.791 180.164 119.06C180.178 119.344 180.249 120.012 180.728 120.538C181.193 121.035 181.911 121.291 182.898 121.291H186.28C186.519 121.291 186.702 121.476 186.702 121.718V128.895C186.702 129.122 186.519 129.307 186.28 129.307Z" fill="#FFC695"/>
<path d="M178.291 99.2629H152.518C152.279 99.2629 152.096 99.0781 152.096 98.8365C152.096 98.5949 152.279 98.4102 152.518 98.4102H178.291C178.53 98.4102 178.713 98.5949 178.713 98.8365C178.713 99.0781 178.53 99.2629 178.291 99.2629Z" fill="#FFC695"/>
<path d="M179.869 101.325H150.954C150.714 101.325 150.531 101.141 150.531 100.899C150.531 100.657 150.714 100.473 150.954 100.473H179.869C180.108 100.473 180.291 100.657 180.291 100.899C180.291 101.141 180.094 101.325 179.869 101.325Z" fill="#FFC695"/>
<path d="M49.4011 22.8042C49.542 19.2655 49.6125 17.5032 49.5138 16.5652C49.0911 12.5859 47.0338 12.117 47.527 9.85729C48.1752 6.94388 52.0784 5.62219 52.4307 5.50849C55.9111 4.37155 57.0102 6.53174 60.3638 5.75009C64.6193 4.75527 64.8306 0.804407 68.762 0.33542C71.1997 0.0511849 74.1306 1.21655 74.8211 3.16356C75.7934 5.878 72.1297 9.26039 70.9743 10.3405C66.3525 14.6182 63.5343 12.9128 58.377 16.5794C52.7547 20.5729 50.5707 26.5277 49.5138 25.9876C49.232 25.8313 49.3025 25.3339 49.4011 22.8042Z" fill="#5C5E64"/>
<path d="M51.0357 21.5975C50.9652 21.5975 50.9088 21.5833 50.8384 21.5549C50.627 21.4554 50.5425 21.1854 50.6552 20.9864C51.6416 19.011 51.9093 17.2913 51.4443 15.9128C51.2893 15.458 51.0779 15.1027 50.8666 14.719C50.5143 14.0937 50.1057 13.3831 49.9084 12.2035C49.7675 11.3366 49.5561 10.0291 50.3311 8.94905C50.8384 8.22425 51.9516 7.72684 53.5297 7.48524C54.9388 7.27206 55.8266 7.41418 56.6861 7.54208C57.1934 7.62735 57.7288 7.69841 58.3911 7.71262C60.4907 7.75526 62.6043 7.05888 64.6757 5.66613C66.1834 4.6571 67.4375 3.3212 68.3956 1.68684C68.5084 1.48788 68.7761 1.41682 68.9734 1.54473C69.1707 1.67263 69.2411 1.92844 69.1143 2.12741C68.0857 3.87545 66.747 5.29663 65.1406 6.37672C62.9143 7.86895 60.6316 8.59375 58.377 8.56533C57.6584 8.55112 57.1088 8.46585 56.5593 8.38058C55.7279 8.25267 54.9529 8.12476 53.6566 8.32373C52.332 8.52269 51.3879 8.92062 51.0216 9.44646C50.4579 10.2423 50.627 11.294 50.7397 12.0756C50.9088 13.0989 51.2329 13.6816 51.5852 14.2927C51.8107 14.6906 52.0502 15.1169 52.2334 15.6428C52.7688 17.2629 52.487 19.1957 51.3879 21.3843C51.3316 21.5122 51.1907 21.5975 51.0357 21.5975Z" fill="white"/>
<path d="M54.4174 16.4244C54.2061 16.4244 54.0229 16.2681 53.9947 16.0549C53.882 15.0885 53.882 14.0937 53.9947 13.1273C54.1638 11.6919 54.2765 10.825 54.967 10.2565C55.6152 9.71649 56.3479 9.8586 57.2638 10.0291C57.757 10.1144 58.3065 10.2281 58.997 10.285C59.6029 10.3276 61.7729 10.4271 63.9429 9.60279C65.7747 8.92063 66.9442 7.84054 67.8883 6.98783C69.1424 5.83668 70.2133 4.48657 71.0729 2.98012C71.1856 2.78116 71.4533 2.7101 71.6506 2.82379C71.8479 2.93749 71.9183 3.20751 71.8056 3.40647C70.9038 4.99819 69.7765 6.41936 68.452 7.62736C67.4515 8.53691 66.2115 9.67385 64.2388 10.4129C61.8997 11.294 59.5888 11.1945 58.9265 11.1377C58.1938 11.0808 57.5879 10.9671 57.1088 10.8819C56.207 10.7113 55.8406 10.6545 55.5024 10.9245C55.0797 11.2798 54.9952 11.9762 54.8402 13.241C54.7274 14.1363 54.7274 15.0601 54.8402 15.9554C54.8683 16.1828 54.6992 16.396 54.4738 16.4244C54.4456 16.4244 54.4315 16.4244 54.4174 16.4244Z" fill="white"/>
<path d="M60.6736 33.9595C59.349 33.9595 57.1086 33.7321 54.6849 32.4815C52.1063 31.1456 50.514 29.227 49.6263 27.8627C49.4995 27.6637 49.5559 27.4079 49.7531 27.2658C49.9504 27.1379 50.204 27.1947 50.3449 27.3937C51.1763 28.6728 52.6699 30.4634 55.0795 31.7141C57.8695 33.1637 60.4199 33.1495 61.3781 33.0784C62.7027 32.9789 65.7886 32.7373 67.7331 30.4066C68.9731 28.9144 69.6072 27.3795 69.6213 25.8588C69.6213 25.5746 69.6072 25.3046 69.579 25.0345C69.5227 24.324 69.4804 23.656 69.9877 23.187C70.5372 22.6896 71.2558 22.8602 71.8336 23.0023C72.2704 23.116 72.6931 23.2154 72.9468 23.0307C73.3836 22.7322 73.6795 21.5669 72.5522 17.7439C71.9886 15.8538 71.1431 14.0347 70.044 12.3293C69.9172 12.1303 69.9736 11.8745 70.1708 11.7324C70.3681 11.6045 70.6218 11.6613 70.7627 11.8603C71.9181 13.6367 72.7918 15.5269 73.3836 17.5023C74.1022 19.9325 74.7645 22.8317 73.454 23.7413C72.8904 24.125 72.2422 23.9687 71.6645 23.8266C71.129 23.6986 70.7908 23.6276 70.5936 23.8123C70.3963 23.9971 70.4104 24.3524 70.4527 24.9635C70.4668 25.2335 70.4949 25.532 70.4949 25.8588C70.4808 27.5927 69.7763 29.2981 68.4095 30.9466C66.2395 33.5616 62.8999 33.8174 61.4768 33.9169C61.2372 33.9453 60.9836 33.9595 60.6736 33.9595Z" fill="#FFC695"/>
<path d="M55.0081 43.9245C53.5286 43.9245 52.2886 43.2281 51.1754 42.5886C50.654 42.2901 49.9917 41.9206 49.3999 41.4232C48.7799 41.5653 48.1599 41.5795 47.6527 41.5938C46.5536 41.6222 44.0031 41.6932 42.3122 39.6752C41.8472 39.1209 41.4245 38.3819 41.199 37.586C40.7904 37.4013 40.3958 37.1597 40.0577 36.9181C37.2677 34.9569 37.8313 31.2618 37.9017 30.8497C38.0708 29.8833 38.5499 28.4479 39.4377 27.4815C39.4377 27.4531 39.4377 27.4389 39.4377 27.4104C39.3249 25.8898 39.9167 24.2412 40.9454 23.2038C42.5095 21.6405 45.0881 21.3705 47.3849 22.5358C47.5963 22.6495 47.6808 22.9053 47.5681 23.1043C47.4695 23.3175 47.2017 23.4027 47.0045 23.289C45.074 22.3084 42.8336 22.5074 41.5513 23.8007C40.734 24.6249 40.3395 25.8187 40.2831 26.7993C40.5508 26.643 40.8608 26.5435 41.1849 26.4867C42.284 26.3161 43.4958 26.842 44.1158 27.4531C44.4681 27.7942 44.6231 28.1495 44.5808 28.4905C44.5245 28.9169 44.144 29.3006 43.5099 29.5848C42.6081 29.9686 41.2695 30.1107 40.424 29.4854C40.114 29.258 39.8745 28.9311 39.7054 28.519C39.1699 29.3148 38.874 30.3238 38.7613 30.9776C38.7331 31.1197 38.1695 34.5163 40.5649 36.1933C40.7058 36.2928 40.8608 36.3923 41.044 36.4917C41.0158 35.9233 41.1004 35.3548 41.3399 34.829C41.7486 33.9621 42.3263 33.5926 42.7349 33.4362C43.7777 33.0383 45.3136 33.422 45.8349 34.6016C46.314 35.6675 45.7222 36.9607 44.8908 37.586C44.144 38.1403 43.1999 38.1687 42.2558 37.9271C42.439 38.3535 42.6927 38.7514 42.9745 39.0783C44.3977 40.7695 46.6804 40.7126 47.6527 40.6984C47.9767 40.6842 48.329 40.6842 48.6954 40.6416C48.3572 40.2152 48.0895 39.7036 47.9486 39.1067C47.8781 38.7656 47.6527 37.7566 48.2586 36.9749C48.6108 36.5344 49.1745 36.2501 49.8227 36.1933C50.4427 36.1365 51.0345 36.3212 51.4431 36.6765C52.4858 37.6003 52.0208 39.3199 51.3868 40.1868C51.1049 40.5705 50.7527 40.8405 50.3722 41.0395C50.7949 41.3379 51.2318 41.5938 51.5981 41.7927C52.8945 42.5175 54.2331 43.285 55.8536 42.9297C56.2904 42.8302 56.9245 42.6454 57.474 42.2475C56.8963 41.7643 56.4031 41.1816 56.1072 40.5847C55.7831 39.9168 55.6986 39.2915 55.8818 38.7514C56.0649 38.2114 56.5158 37.7282 57.0936 37.4439C57.5586 37.2165 58.0236 37.1739 58.404 37.316C58.7845 37.4581 59.0945 37.785 59.3058 38.2682C59.6863 39.1636 59.6581 40.4568 59.2354 41.409C59.1227 41.679 58.9677 41.9206 58.7986 42.148C59.0522 42.2901 59.3058 42.4038 59.5595 42.4891C61.2504 43.0434 62.8286 42.2475 63.6599 41.8069C64.294 41.4801 65.0831 41.0821 65.5622 40.5279C65.1818 40.5421 64.7872 40.4852 64.4068 40.3573C64.139 40.2721 62.8004 39.7604 62.7158 38.6946C62.6877 38.2398 62.8849 37.7566 63.2795 37.3587C63.7445 36.9039 64.3645 36.6481 64.914 36.7049C66.0554 36.8186 66.7881 38.1403 66.8163 39.3625C67.5208 39.0641 68.169 38.5667 68.634 38.0266C68.8736 37.7566 69.1131 37.4155 69.3104 37.0318C68.5072 36.847 67.7886 36.4207 67.3377 35.8664C66.9008 35.3264 66.5063 34.2463 66.9713 33.5925C67.2108 33.2657 67.6336 33.0809 68.1831 33.0667H68.1972C68.9018 33.0667 69.8318 33.3652 70.3249 34.0473C70.7758 34.6726 70.7758 35.4827 70.5363 36.2786C71.0295 36.2359 71.5227 36.0512 71.9313 35.7385C72.8754 34.9995 73.4531 33.4646 72.7627 32.2993C72.0581 31.1055 70.4658 31.0913 70.4377 31.0913C70.1981 31.0913 70.0149 30.9065 70.0149 30.6649C70.0149 30.4233 70.1981 30.2386 70.4377 30.2386C70.5222 30.2386 72.5372 30.2528 73.4813 31.8587C74.4113 33.4362 73.6645 35.4543 72.4386 36.4065C71.7763 36.9323 70.9731 37.1455 70.184 37.1455C69.9163 37.6997 69.564 38.1972 69.2399 38.5809C68.5918 39.3341 67.6477 40.0163 66.619 40.3289C66.1681 41.4374 64.8858 42.0912 63.984 42.5602C63.0258 43.0434 61.2504 43.9529 59.2354 43.285C58.8549 43.1571 58.4886 42.9865 58.1363 42.7733C57.4036 43.3702 56.544 43.6545 55.9663 43.7682C55.6704 43.8818 55.3322 43.9245 55.0081 43.9245ZM57.939 38.1261C57.7981 38.1261 57.629 38.1687 57.4599 38.254C57.0936 38.4245 56.7836 38.7514 56.6849 39.0641C56.544 39.4762 56.7131 39.931 56.8681 40.2436C57.1358 40.7695 57.5727 41.2811 58.1081 41.7075C58.249 41.5369 58.3758 41.3379 58.4745 41.1106C58.7986 40.3573 58.8268 39.3199 58.5449 38.6377C58.4322 38.3819 58.2913 38.2114 58.1363 38.1545C58.0658 38.1261 58.0095 38.1261 57.939 38.1261ZM50.0199 37.0744C49.9777 37.0744 49.9213 37.0744 49.879 37.0744C49.4704 37.1029 49.1181 37.2876 48.9067 37.5292C48.5404 37.984 48.6954 38.6661 48.7517 38.9362C48.8927 39.5473 49.2168 40.0447 49.6254 40.4568C50.034 40.3147 50.4145 40.0873 50.6822 39.7178C51.1472 39.0783 51.4431 37.8703 50.8654 37.3444C50.6681 37.1739 50.3581 37.0744 50.0199 37.0744ZM64.8013 37.586C64.5054 37.586 64.1672 37.7424 63.8995 37.9982C63.6881 38.2114 63.5613 38.453 63.5754 38.6519C63.6036 39.0925 64.3222 39.4478 64.6886 39.5757C65.0972 39.7178 65.5481 39.732 65.999 39.661C65.999 39.6468 65.999 39.6183 65.999 39.6041C66.0554 38.7372 65.5622 37.6429 64.8718 37.586C64.8436 37.586 64.8154 37.586 64.8013 37.586ZM41.9317 36.9607C42.7772 37.2876 43.7213 37.4297 44.3695 36.9323C44.8345 36.577 45.384 35.7243 45.0458 34.9853C44.7217 34.2605 43.7072 34.0047 43.0167 34.2747C42.6222 34.4168 42.3122 34.7437 42.0867 35.2269C41.8472 35.7527 41.8049 36.3638 41.9317 36.9607ZM68.2395 33.9478C67.9154 33.9478 67.7463 34.0331 67.6899 34.1184C67.549 34.3173 67.6758 34.9285 68.0281 35.369C68.3945 35.8238 69.0145 36.1649 69.7049 36.2786C69.9304 35.639 69.9868 34.9995 69.6908 34.5874C69.4231 34.2179 68.8031 33.9478 68.2395 33.9478ZM40.3395 27.7942C40.4381 28.2631 40.6354 28.6184 40.9031 28.8174C41.4245 29.2011 42.3545 29.1159 43.0027 28.8743C43.524 28.6895 43.7213 28.4621 43.7354 28.3911C43.7354 28.3626 43.679 28.2063 43.4254 27.9931C42.9463 27.581 42.0586 27.2257 41.2977 27.3394C40.9454 27.4104 40.6213 27.5668 40.3395 27.7942Z" fill="#FFC695"/>
<path d="M45.0893 71.7789C44.7088 71.7789 44.3707 71.7505 44.0607 71.6794C39.6925 70.7557 37.2407 66.9469 36.7897 66.1937C33.7179 61.0206 35.747 55.2364 37.2266 51.0155C38.4947 47.4058 39.6784 43.9949 42.8488 42.8722C46.3011 41.65 49.7675 43.9381 50.9088 44.6771C53.9243 46.6525 55.1361 49.2533 57.1229 53.5595C58.7011 56.9561 59.4761 59.9263 59.4902 62.6692C59.5043 64.2751 59.5184 66.0942 58.3488 67.6291C57.5879 68.6381 56.5875 69.2492 52.642 70.2582C48.9079 71.2104 46.6675 71.7789 45.0893 71.7789ZM43.1307 43.6823C40.3547 44.6629 39.2697 47.7468 38.0297 51.2998C36.6066 55.3643 34.662 60.9211 37.5225 65.7531C37.9452 66.4495 40.2279 69.9882 44.2438 70.8409C45.6811 71.1394 47.9497 70.5709 52.4447 69.434C56.1507 68.496 57.0525 67.9559 57.6866 67.1175C58.6729 65.81 58.6588 64.2183 58.6447 62.6692C58.6307 61.7028 58.6166 58.7752 56.3479 53.9147C54.4175 49.7507 53.2479 47.2352 50.4438 45.3877C49.4011 44.7055 46.1743 42.588 43.1307 43.6823Z" fill="#FFC695"/>
<path d="M61.5882 79.2095C61.5318 79.2095 61.4614 79.2095 61.405 79.2095C57.8259 79.1384 55.4164 77.1914 52.8659 75.1165C50.3436 73.07 45.6655 69.2755 45.2427 63.406C45.0455 60.5779 45.8064 56.3144 48.1173 55.6748C50.3718 55.0495 52.8659 58.1903 53.6832 59.2278C55.4446 61.4448 55.98 63.3776 56.4591 65.083C56.9241 66.76 57.2905 68.0817 58.7277 69.1476C60.9964 70.8246 63.9555 70.3271 64.8009 70.1282C64.97 70.0855 68.7886 69.1902 70.0991 66.1489C70.2964 65.6941 70.3105 65.4952 70.3386 64.9835C70.3668 64.5003 70.4232 63.7613 70.6486 62.3686C71.17 59.313 71.4518 57.6361 72.6496 56.5844C73.3823 55.9449 74.6082 55.7601 76.8205 55.4332C80.5546 54.8648 82.2736 54.609 82.8514 55.6464C83.1614 56.2149 82.9923 56.8544 81.3296 59.4978C81.1464 59.7962 80.9632 60.0805 80.8082 60.3363C80.0614 61.5443 79.4696 62.4965 78.5114 63.6476C77.4968 64.8556 76.7641 65.5378 76.0455 66.1915C75.7214 66.49 75.4255 66.76 75.1014 67.0869C73.1709 69.0055 72.5791 70.4977 71.9873 71.9473C71.4377 73.3116 70.9164 74.6049 69.3805 76.0403C68.8168 76.5803 65.7591 79.2095 61.5882 79.2095ZM48.7232 56.4565C48.5823 56.4565 48.4555 56.4707 48.3427 56.4991C46.7505 56.9397 45.8768 60.4642 46.0882 63.3492C46.4827 68.8491 50.9777 72.4873 53.3873 74.4486C55.9236 76.5093 58.1218 78.2857 61.405 78.3568C65.3505 78.4278 68.2673 75.9124 68.8027 75.415C70.1977 74.1075 70.6627 72.9705 71.2123 71.6346C71.8041 70.185 72.4664 68.5365 74.5096 66.49C74.8477 66.1489 75.1718 65.8647 75.4818 65.5662C76.1723 64.9267 76.8909 64.2729 77.8632 63.1076C78.7932 61.9849 79.3427 61.1037 80.1036 59.8815C80.2727 59.6115 80.4418 59.3273 80.6391 59.0288C81.0477 58.3751 82.3159 56.3712 82.1468 56.0586C81.8509 55.5327 79.7091 55.8596 76.9755 56.2717C74.8055 56.5986 73.7486 56.7834 73.2273 57.2381C72.2973 58.0482 72.0296 59.441 71.5082 62.5107C71.2827 63.8608 71.2405 64.5714 71.1982 65.0404C71.17 65.5946 71.1418 65.8931 70.8882 66.49C69.4086 69.9434 65.1814 70.924 64.9982 70.9667C63.8005 71.2367 60.7286 71.6631 58.2486 69.8297C56.5718 68.5933 56.1491 67.0727 55.6559 65.3104C55.205 63.6761 54.6836 61.8427 53.035 59.7536C50.9214 57.1102 49.5546 56.4565 48.7232 56.4565Z" fill="#FFC695"/>
<path d="M74.8073 123.624C74.3845 123.624 73.9759 123.553 73.5954 123.396C72.2568 122.828 71.9186 121.407 71.51 119.616C71.2141 118.323 70.8336 116.731 70.0023 114.954C68.3677 111.487 66.0991 109.653 62.6609 106.868C58.2645 103.315 55.2209 102.15 52.5295 101.112C49.8805 100.089 47.5836 99.2079 44.7795 96.3655C41.4118 92.9405 39.0727 88.4354 38.0159 83.3334C37.1423 79.1267 37.3114 74.6642 38.495 70.4291C38.5514 70.2017 38.7909 70.0738 39.0164 70.1306C39.2418 70.1875 39.3686 70.4291 39.3123 70.6565C38.1709 74.7495 38.0159 79.0698 38.8473 83.1486C39.8618 88.0801 42.1305 92.4431 45.3855 95.7544C48.0486 98.4689 50.2609 99.3216 52.8255 100.302C55.5732 101.354 58.6873 102.548 63.1823 106.186C66.5923 108.943 69.0441 110.918 70.7632 114.571C71.6368 116.433 72.0173 118.081 72.3273 119.403C72.7218 121.08 72.9754 122.188 73.9195 122.586C75.7373 123.354 79.1614 121.279 80.8523 118.408C83.2054 114.4 81.6695 109.682 78.95 102.306C75.9909 94.2764 73.8491 88.478 67.6773 84.2855C63.0273 81.1305 58.5323 80.5052 54.9109 80.0078C49.9791 79.3256 47.8373 80.1215 46.6677 80.7752C45.2445 81.5711 44.0327 82.7507 43.0886 84.2713C42.9618 84.4703 42.7082 84.5271 42.5109 84.4134C42.3136 84.2855 42.2573 84.0297 42.37 83.8308C43.3986 82.1822 44.695 80.9031 46.2591 80.0362C47.6541 79.2546 49.9086 78.4587 55.0377 79.1693C58.5464 79.6525 63.3373 80.3205 68.1564 83.5892C74.5536 87.9237 76.7236 93.8358 79.7391 102.022C82.2614 108.872 84.2623 114.287 81.5709 118.848C80.1055 121.392 77.1605 123.624 74.8073 123.624Z" fill="#FFC695"/>
<path d="M86.6996 61.5025C85.2623 61.5025 83.7828 61.4883 82.261 61.4457C82.0214 61.4457 81.8382 61.2467 81.8523 61.0051C81.8523 60.7635 82.0496 60.5788 82.2891 60.593C86.4882 60.6925 90.4478 60.6498 94.041 60.4793C95.1964 60.4224 96.9296 60.3372 97.5496 59.2855C97.9442 58.6033 97.8596 57.5517 97.3523 56.9548C96.676 56.1305 95.2951 56.23 93.5478 56.3579C93.3505 56.3721 93.1391 56.3863 92.9278 56.4005C90.1941 56.5853 87.3478 56.5426 84.4732 56.2868C84.2337 56.2726 84.0646 56.0594 84.0928 55.8178C84.1069 55.5904 84.3182 55.4057 84.5578 55.4341C87.4041 55.6899 90.2082 55.7326 92.8855 55.5478C93.0969 55.5336 93.2941 55.5194 93.4914 55.5052C95.4078 55.363 97.0705 55.2494 98.0146 56.4005C98.7473 57.2958 98.8601 58.717 98.2823 59.7118C97.4369 61.1757 95.3373 61.2751 94.0832 61.332C91.7582 61.4457 89.2923 61.5025 86.6996 61.5025Z" fill="#5C5E64"/>
<path d="M72.1013 126.58C70.2836 126.58 68.4095 126.352 66.5213 125.898L66.4508 125.884C59.9549 124.334 52.4445 124.661 45.1876 124.96C39.4667 125.201 34.0558 125.429 29.6313 124.704C29.0958 124.619 27.4472 124.349 26.4467 123.013C25.5026 121.762 25.404 119.929 25.7281 118.664C25.9817 117.683 26.4608 117.001 27.0808 116.717C28.0954 116.262 29.124 117.015 30.2231 117.825C30.6458 118.138 31.0826 118.465 31.5476 118.735C33.7317 120.057 36.3808 120.426 44.779 118.806C49.9786 117.797 54.1072 116.674 63.7454 113.988L63.8158 113.974C70.9035 112.013 72.8058 111.473 75.4408 112.482C78.3154 113.576 81.0208 116.177 82.1904 118.977C82.8245 120.483 82.909 121.847 82.444 122.927C81.6408 124.761 79.344 125.372 77.4981 125.869C75.7508 126.352 73.9472 126.58 72.1013 126.58ZM54.1776 123.865C58.5036 123.865 62.7308 124.135 66.634 125.059L66.7045 125.073C70.3963 125.955 73.9472 125.955 77.2726 125.059C79.034 124.59 81.0208 124.05 81.6549 122.601C82.0213 121.762 81.9367 120.597 81.4013 119.318C80.3304 116.76 77.7517 114.287 75.1308 113.292C72.7635 112.397 70.9176 112.908 64.0413 114.813L63.9708 114.827C54.544 117.442 50.1617 118.65 44.934 119.659C36.2681 121.336 33.4781 120.924 31.1108 119.488C30.6176 119.19 30.1526 118.849 29.7158 118.536C28.7858 117.854 27.9826 117.257 27.419 117.513C27.0526 117.683 26.7145 118.195 26.5454 118.891C26.2776 119.957 26.3481 121.478 27.1231 122.501C27.9263 123.567 29.3072 123.794 29.7722 123.865C34.1122 124.576 39.4808 124.349 45.1595 124.107C48.1467 123.993 51.1763 123.865 54.1776 123.865Z" fill="#FFC695"/>
<path d="M20.8382 126.038C19.4713 126.038 18.0482 125.839 16.4136 125.598C15.7373 125.498 15.0327 125.399 14.2577 125.299C10.2136 124.788 7.12772 124.702 4.88726 124.646C2.0409 124.575 0.857261 124.546 0.716352 123.637C0.476806 122.102 4.92953 120.723 5.4509 120.581C7.94499 119.828 9.95999 119.927 11.5804 120.013C13.4123 120.098 14.7368 120.169 16.0332 119.131C17.2732 118.137 17.7945 116.687 17.9918 116.147C18.5836 114.527 18.4427 113.106 18.3441 112.082C18.2595 111.187 18.1891 110.462 18.7668 110.15C19.6264 109.695 20.5141 110.633 23.7973 114.157C24.0932 114.47 24.4032 114.811 24.7414 115.166L25.5304 116.019C28.715 119.416 29.4759 120.226 29.2786 121.533C28.9404 123.722 26.0236 124.859 24.9245 125.271C23.5014 125.839 22.1909 126.038 20.8382 126.038ZM1.54772 123.509C1.82953 123.722 3.32317 123.764 4.90135 123.807C7.16999 123.864 10.27 123.949 14.3564 124.461C15.1314 124.56 15.8359 124.66 16.5264 124.759C19.7814 125.228 21.9373 125.541 24.6427 124.489C25.615 124.12 28.1936 123.111 28.4614 121.405C28.6023 120.538 28.0245 119.899 24.9386 116.616L24.1354 115.763C23.7973 115.408 23.4873 115.067 23.1914 114.754C21.1059 112.537 19.5982 110.917 19.1895 110.917C19.1754 110.917 19.1754 110.917 19.1754 110.917C19.105 111.017 19.1614 111.585 19.2036 112.011C19.3023 113.063 19.4573 114.641 18.795 116.445C18.5695 117.057 17.9918 118.662 16.5686 119.814C15.0186 121.05 13.4123 120.979 11.5382 120.879C9.90363 120.794 8.05772 120.709 5.69044 121.42C3.39362 122.087 1.67453 123.111 1.54772 123.509Z" fill="#FFC695"/>
<path d="M86.8126 123.862C86.4462 123.862 86.108 123.791 85.798 123.606C84.389 122.81 84.5439 120.409 84.6426 118.817L84.6567 118.618C85.1358 110.574 83.3039 103.61 82.9235 102.303C82.1062 99.4463 81.148 98.1814 80.3026 97.0445C79.3867 95.8365 78.5271 94.6995 78.1326 92.0135C78.1185 91.8856 78.0903 91.7435 78.0762 91.5872C76.1599 92.4114 73.9335 93.0368 71.4535 93.0936C66.0144 93.2073 61.7026 90.5355 59.0535 88.29C58.8703 88.1337 58.8562 87.8637 58.9971 87.6931C59.1521 87.5084 59.4199 87.4942 59.589 87.6363C62.1394 89.7965 66.2539 92.3404 71.4394 92.2409C73.9053 92.1983 76.1035 91.5303 77.9917 90.6918C77.7944 87.949 78.0199 82.7475 81.7539 79.0666C83.8676 76.9775 87.6017 74.9026 91.1385 75.8974C92.6321 76.3238 94.9994 77.6028 94.943 79.2656C94.9008 80.4736 93.5762 81.1842 92.0544 82.0085C91.7867 82.1506 91.5049 82.2927 91.223 82.449C88.8135 83.7849 87.813 84.7655 86.7562 85.7888C85.8544 86.6699 84.9103 87.5937 83.0785 88.7732C81.9935 89.4838 80.5703 90.3934 78.8653 91.2034C78.8935 91.4735 78.9217 91.6866 78.9499 91.8714C79.3162 94.3442 80.0771 95.3533 80.9649 96.5186C81.8526 97.6982 82.8671 99.0483 83.7267 102.047C84.1071 103.383 85.9812 110.475 85.488 118.661L85.4739 118.859C85.4035 120.067 85.2626 122.313 86.2067 122.853C86.883 123.237 88.123 122.768 88.8558 122.086C90.1239 120.906 89.8844 118.788 89.6589 116.756C89.5321 115.662 89.4194 114.61 89.5462 113.757C90.3635 108.385 91.5612 104.321 92.7308 100.37C94.0412 95.9502 95.3799 91.3882 96.1971 84.9503C97.0003 78.5976 96.6621 75.6984 94.9148 73.8935C93.2803 72.2023 91.0399 71.9323 86.8971 71.5486C82.8108 71.1791 78.6117 71.4491 74.4267 72.3587C74.2012 72.4155 73.9758 72.2592 73.9194 72.0318C73.863 71.8044 74.018 71.577 74.2435 71.5202C78.513 70.5822 82.7826 70.3122 86.9676 70.6959C90.8144 71.0512 93.5762 71.307 95.5067 73.2967C97.4653 75.3147 97.8598 78.3987 97.0285 85.0498C96.2112 91.5445 94.8444 96.1491 93.5339 100.597C92.3785 104.506 91.1808 108.556 90.3776 113.871C90.2649 114.624 90.3776 115.605 90.4903 116.642C90.7299 118.788 91.0117 121.233 89.4194 122.697C88.7571 123.365 87.7426 123.862 86.8126 123.862ZM89.2221 76.4943C86.5589 76.4943 83.9521 78.086 82.3317 79.6777C78.9639 82.9891 78.6539 87.6363 78.7949 90.3081C80.3308 89.5549 81.613 88.7164 82.6135 88.0627C84.3749 86.9257 85.2767 86.0304 86.1503 85.1777C87.2494 84.0976 88.2921 83.0885 90.8003 81.6958C91.0821 81.5395 91.3639 81.3831 91.6317 81.241C92.928 80.5446 94.0553 79.9478 94.0694 79.2372C94.0976 78.2992 92.4067 77.148 90.8849 76.7217C90.3494 76.5654 89.7858 76.4943 89.2221 76.4943Z" fill="#FFC695"/>
<path d="M92.5318 58.2778C92.3345 58.2778 92.1654 58.1499 92.1231 57.9509C91.2918 54.2559 91.5313 51.9251 92.8559 50.8308C93.1095 50.6177 93.3209 50.5324 93.6168 50.4045C93.9127 50.2766 94.3072 50.106 95.0259 49.7223C96.5477 48.898 97.3931 48.4575 98.0554 47.7042C99.1827 46.4252 99.3095 44.805 99.3518 44.1939C99.5349 41.7922 98.4499 39.3051 96.604 37.8555C94.2368 36.008 91.475 36.4485 89.46 36.7612C87.3181 37.1023 84.9086 38.0545 83.3868 39.1488C84.4295 39.8452 86.064 41.1384 85.7118 42.3322C85.5849 42.7586 85.2045 43.1423 84.669 43.3839C83.9363 43.7107 83.0909 43.725 82.4427 43.4265C81.6536 43.057 81.0618 42.1475 81.0336 41.2948C81.0195 40.5984 81.3577 39.9162 81.9354 39.2909C79.2581 37.9266 76.5104 38.3671 75.4536 38.5235C73.1427 38.8788 70.5218 39.2909 69.0986 41.5079C67.5627 43.8813 67.8022 47.69 69.5777 49.0544C70.2822 49.5944 71.0995 49.6228 71.9731 49.6513C73.0018 49.6797 74.0586 49.7223 74.8899 50.6319C75.6509 51.4704 75.9186 52.7352 75.6931 54.3838C75.6649 54.6112 75.4536 54.7817 75.214 54.7533C74.9886 54.7248 74.8195 54.5117 74.8477 54.2701C75.0309 52.8773 74.8336 51.8399 74.2559 51.2003C73.664 50.5466 72.8609 50.5182 71.9309 50.4898C71.0149 50.4613 69.9722 50.4187 69.0563 49.7223C66.9286 48.1022 66.5904 43.796 68.3799 41.0389C70.0145 38.5093 72.8327 38.0687 75.3127 37.6708C76.4822 37.486 79.5681 37.0028 82.5695 38.6656C82.5695 38.6656 82.5836 38.6656 82.5836 38.6798C84.3027 37.3013 87.1068 36.2638 89.2909 35.9227C91.334 35.5958 94.4199 35.1126 97.0831 37.1876C99.1545 38.8077 100.366 41.579 100.155 44.265C100.099 44.9472 99.9577 46.7805 98.6472 48.2727C97.8863 49.1396 96.9422 49.6513 95.3781 50.4898C94.6313 50.8877 94.1945 51.0724 93.9127 51.2003C93.6309 51.314 93.5181 51.3709 93.349 51.4988C92.3204 52.3515 92.1654 54.469 92.9122 57.7804C92.9686 58.0078 92.8277 58.2352 92.5881 58.292C92.6022 58.2778 92.574 58.2778 92.5318 58.2778ZM82.7104 39.7172C82.189 40.2289 81.879 40.7547 81.8931 41.2663C81.9072 41.8206 82.3018 42.4175 82.809 42.6591C83.2318 42.858 83.8236 42.8438 84.3309 42.6164C84.6268 42.4743 84.8522 42.2896 84.9086 42.1048C85.0636 41.5506 83.9645 40.5131 82.7104 39.7172Z" fill="#5C5E64"/>
<path d="M82.4012 37.3434C82.3872 37.3434 82.3872 37.3434 82.4012 37.3434C82.1617 37.3434 81.9785 37.1445 81.9785 36.9029L82.2181 27.9637C82.2181 27.7221 82.4153 27.5373 82.6549 27.5515C82.8944 27.5515 83.0776 27.7505 83.0635 27.9921L82.824 36.9313C82.8099 37.1587 82.6267 37.3434 82.4012 37.3434Z" fill="#5C5E64"/>
<path d="M84.6142 31.2316H79.9501C79.7105 31.2316 79.5273 31.0469 79.5273 30.8053C79.5273 30.5637 79.7105 30.3789 79.9501 30.3789H84.6142C84.8537 30.3789 85.0369 30.5637 85.0369 30.8053C85.0369 31.0469 84.8396 31.2316 84.6142 31.2316Z" fill="#5C5E64"/>
<path d="M92.405 128.269C90.6719 128.269 88.7414 127.928 87.1491 126.749C86.3319 126.137 85.7682 125.441 85.4864 124.674C84.8523 122.94 85.3173 120.481 87.1773 119.344C88.9669 118.264 91.2778 118.889 92.4755 120.112C93.0391 120.68 93.2223 121.263 93.3914 121.774C93.5464 122.258 93.6591 122.613 94.0396 122.883C94.7019 123.352 95.7869 123.295 97.2523 122.712C97.4637 122.627 97.7173 122.727 97.8019 122.954C97.8864 123.167 97.7878 123.423 97.5623 123.508C95.815 124.205 94.4623 124.233 93.5464 123.579C92.9405 123.153 92.7573 122.585 92.5741 122.044C92.4191 121.575 92.2782 121.135 91.8555 120.709C90.8973 119.728 89.0091 119.216 87.6 120.069C86.1205 120.964 85.7541 122.997 86.2614 124.375C86.4869 124.986 86.9519 125.555 87.6282 126.066C90.3759 128.099 94.406 127.36 96.0123 126.933C96.2378 126.876 96.4632 127.019 96.5337 127.246C96.59 127.473 96.4491 127.701 96.2237 127.772C95.4346 127.985 93.9973 128.269 92.405 128.269Z" fill="#FFC695"/>
</svg>
